# xmcd
#
# Track frame offsets: 
#        150
#        18317
#        88027
#        125568
#        161944
#        181591
#        217234
#        249712
#        290029
#
# Disc length: 4496 seconds
#
# Revision: 0
# Processed by: cddbd v1.5.2PL0 Copyright (c) Steve Scherf et al.
# Submitted via: ExactAudioCopyFreeDBPlugin 1.0
#
DISCID=86118e09
DTITLE=The Rolling Stones - 2016 - Havana Moon Cd 2
DYEAR=2016
DGENRE=
TTITLE0=Before They Make Me Run (Live)
TTITLE1=Midnight Rambler (Live)
TTITLE2=Miss You (Live)
TTITLE3=Gimme Shelter (Live)
TTITLE4=Start Me Up (Live)
TTITLE5=Sympathy For The Devil (Live)
TTITLE6=Brown Sugar (Live)
TTITLE7=You Can't Always Get What You Want (Live)
TTITLE8=(I Can't Get No) Satisfaction (Live)
EXTD=
EXTT0=
EXTT1=
EXTT2=
EXTT3=
EXTT4=
EXTT5=
EXTT6=
EXTT7=
EXTT8=
PLAYORDER=
